<?xml version="1.0" standalone="no"?>
<!DOCTYPE svg PUBLIC "-//W3C//DTD SVG 20010904//EN"
 "http://www.w3.org/TR/2001/REC-SVG-20010904/DTD/svg10.dtd">
<svg version="1.0" xmlns="http://www.w3.org/2000/svg"
 width="500.000000pt" height="500.000000pt" viewBox="0 0 500.000000 500.000000"
 preserveAspectRatio="xMidYMid meet">
<metadata>
Created by potrace 1.11, written by Peter Selinger 2001-2013
</metadata>
<g transform="translate(0.000000,500.000000) scale(0.100000,-0.100000)"
fill="#000000" stroke="none">
<path d="M1556 4985 c-3 -9 0 -15 10 -15 11 0 14 -6 10 -17 -5 -15 -3 -14 9 2
9 11 18 19 20 18 12 -7 26 -2 21 6 -4 5 0 12 6 14 7 3 -6 6 -28 6 -29 1 -44
-4 -48 -14z m54 -5 c0 -5 -2 -10 -4 -10 -3 0 -8 5 -11 10 -3 6 -1 10 4 10 6 0
11 -4 11 -10z"/>
<path d="M1544 4159 c-234 -17 -469 -108 -671 -261 -433 -326 -686 -954 -623
-1546 82 -763 559 -1334 1203 -1439 90 -15 166 -16 825 -4 1045 18 1139 22
1287 61 521 135 913 587 1042 1202 26 124 28 148 27 363 0 209 -3 242 -27 355
-139 662 -586 1135 -1158 1225 -83 13 -279 20 -959 33 -470 9 -896 14 -946 11z
m1003 -986 c50 -95 104 -247 129 -368 26 -126 27 -423 1 -545 -38 -176 -130
-401 -197 -481 l-27 -33 -35 54 c-92 144 -166 335 -193 500 -19 122 -19 338 0
460 27 165 112 385 198 509 l30 45 27 -32 c14 -17 44 -66 67 -109z"/>
</g>
</svg>
